# xmcd CD database file
#
# Track frame offsets:
#	150
#	12809
#	33860
#	48667
#	66787
#	87888
#	101269
#	116791
#	128413
#	139792
#	155802
#	159283
#	171637
#
# Disc length: 2505 seconds
#
# Revision: 0
# Processed by: cddbd v1.5.2PL0 Copyright (c) Steve Scherf et al.
# Submitted via: CDex 1.85
#
DISCID=a509c70d
DTITLE=St. Vincent - Masseduction
DYEAR=2017
DGENRE=New Age
TTITLE0=Hong on Me
TTITLE1=Pills
TTITLE2=Masseduction
TTITLE3=Sugarboy
TTITLE4=Los Ageless
TTITLE5=Happy Birthday, Johnny
TTITLE6=Savior
TTITLE7=New York
TTITLE8=Fear the Future
TTITLE9=Young Lover
TTITLE10=Dancing with a Ghost
TTITLE11=Slow Disco
TTITLE12=Smoking Section
EXTD=YEAR: 2017
EXTT0=
EXTT1=
EXTT2=
EXTT3=
EXTT4=
EXTT5=
EXTT6=
EXTT7=
EXTT8=
EXTT9=
EXTT10=
EXTT11=
EXTT12=
PLAYORDER=
